<svg width="50" height="50" viewBox="0 0 50 50" fill="none" xmlns="http://www.w3.org/2000/svg">
<path fill-rule="evenodd" clip-rule="evenodd" d="M45.5377 14.6371L43.8983 16.2735C40.3462 13.1831 35.7917 11.4547 31.0562 11.4547C27.8679 11.4547 24.6813 12.2729 21.9489 13.7269L28.8703 6.81826C29.4168 7.18133 30.0538 7.36372 30.6925 7.36372C31.6027 7.36372 32.5146 7.00065 33.2421 6.2728C34.6988 4.8188 34.6988 2.54492 33.2421 1.09092C32.5129 0.363072 31.6027 0 30.6925 0C29.7823 0 28.8703 0.363072 28.1428 1.09092C26.9594 2.36423 26.7767 4.1813 27.5964 5.54495L18.8528 14.2723L17.2134 12.6359L12.7511 17.09L14.3906 18.7263L5.46429 27.6361C4.91782 27.273 4.28083 27.0906 3.64215 27.0906C2.73193 27.0906 1.82001 27.4537 1.09252 28.1816C-0.364172 29.6356 -0.364172 31.9095 1.09252 33.3634C1.82171 33.9993 2.73193 34.364 3.64215 34.364C4.55236 34.364 5.46429 34.001 6.19178 33.2731C7.37523 32.0918 7.55796 30.2731 6.73825 28.8191L13.6597 21.9105C10.0171 28.9111 10.8368 37.6385 16.2093 43.8192L14.5699 45.546L19.1244 50L23.5866 45.546L19.1244 41.0919L17.5755 42.638C12.2935 36.4555 12.0202 27.5475 16.4825 21.0019L17.2117 21.7298L21.7662 17.2758L20.9465 16.5479C23.8616 14.4564 27.4137 13.3655 31.0562 13.3655C35.3375 13.3655 39.3438 14.9115 42.6226 17.6388L40.9832 19.1849L45.5377 23.6389L50 19.1849L45.5377 14.6388V14.6371ZM21.037 45.546L19.1244 47.4551L17.2117 45.546L19.1244 43.6369L21.037 45.546ZM29.4168 2.45457C29.7806 2.0915 30.2365 1.90911 30.6925 1.90911C31.1484 1.90911 31.6027 2.0915 31.9682 2.45457C32.6973 3.18242 32.6973 4.27334 31.9682 4.99949C31.6044 5.36256 31.1484 5.54495 30.6925 5.54495C30.2365 5.54495 29.7823 5.36256 29.4168 4.99949C28.6876 4.36369 28.6876 3.18072 29.4168 2.45457ZM4.91611 31.9998C4.55236 32.3629 4.0964 32.5453 3.64044 32.5453C3.18448 32.5453 2.73022 32.3629 2.36477 31.9998C2.00102 31.7271 1.8183 31.2719 1.8183 30.7265C1.8183 30.2714 2.00102 29.818 2.36477 29.4532C2.72851 29.0884 3.18448 28.9077 3.64044 28.9077C4.0964 28.9077 4.55066 29.0901 4.91611 29.4532C5.64531 30.181 5.64531 31.3623 4.91611 31.9981V31.9998ZM17.1212 19.1815L15.2086 17.2724L17.1212 15.3632L19.0339 17.2724L17.1212 19.1815ZM45.5377 21.0906L43.6251 19.1815L45.5377 17.2724L47.4504 19.1815L45.5377 21.0906Z" fill="#333333"/>
</svg>
